<?xml version="1.0" encoding="UTF-8" standalone="no"?>
<!DOCTYPE svg PUBLIC "-//W3C//DTD SVG 1.1//EN"
 "http://www.w3.org/Graphics/SVG/1.1/DTD/svg11.dtd">
<!-- Generated by graphviz version 13.0.0 (20250608.1624)
 -->
<!-- Title: trace_graph Pages: 1 -->
<svg width="1128pt" height="210pt"
 viewBox="0.00 0.00 1128.00 210.00" xmlns="http://www.w3.org/2000/svg" xmlns:xlink="http://www.w3.org/1999/xlink">
<g id="graph0" class="graph" transform="scale(1 1) rotate(0) translate(4 206)">
<title>trace_graph</title>
<polygon fill="white" stroke="none" points="-4,4 -4,-206 1124.32,-206 1124.32,4 -4,4"/>
<!-- n0 -->
<g id="node1" class="node">
<title>n0</title>
<polygon fill="none" stroke="black" points="1017.82,-54.5 1017.82,-90.5 1120.32,-90.5 1120.32,-54.5 1017.82,-54.5"/>
<text xml:space="preserve" text-anchor="middle" x="1029.19" y="-67.7" font-family="Times,serif" font-size="14.00">o</text>
<polyline fill="none" stroke="black" points="1040.57,-55 1040.57,-90.5"/>
<text xml:space="preserve" text-anchor="middle" x="1080.44" y="-67.7" font-family="Times,serif" font-size="14.00">data 0.7071</text>
</g>
<!-- op0 -->
<g id="node2" class="node">
<title>op0</title>
<ellipse fill="none" stroke="black" cx="955.03" cy="-72.5" rx="26.78" ry="26.78"/>
<text xml:space="preserve" text-anchor="middle" x="955.03" y="-67.45" font-family="Times,serif" font-size="14.00">tanh</text>
</g>
<!-- op0&#45;&gt;n0 -->
<g id="edge1" class="edge">
<title>op0&#45;&gt;n0</title>
<path fill="none" stroke="black" d="M982.3,-72.5C989.68,-72.5 998.02,-72.5 1006.54,-72.5"/>
<polygon fill="black" stroke="black" points="1006.25,-76 1016.25,-72.5 1006.25,-69 1006.25,-76"/>
</g>
<!-- n7 -->
<g id="node3" class="node">
<title>n7</title>
<polygon fill="none" stroke="black" points="3.75,-165.5 3.75,-201.5 113,-201.5 113,-165.5 3.75,-165.5"/>
<text xml:space="preserve" text-anchor="middle" x="18.5" y="-178.7" font-family="Times,serif" font-size="14.00">x2</text>
<polyline fill="none" stroke="black" points="33.25,-166 33.25,-201.5"/>
<text xml:space="preserve" text-anchor="middle" x="73.12" y="-178.7" font-family="Times,serif" font-size="14.00">data 0.0000</text>
</g>
<!-- op6 -->
<g id="node12" class="node">
<title>op6</title>
<ellipse fill="none" stroke="black" cx="170.75" cy="-128.5" rx="18" ry="18"/>
<text xml:space="preserve" text-anchor="middle" x="170.75" y="-123.45" font-family="Times,serif" font-size="14.00">*</text>
</g>
<!-- n7&#45;&gt;op6 -->
<g id="edge9" class="edge">
<title>n7&#45;&gt;op6</title>
<path fill="none" stroke="black" d="M99,-165.15C104.97,-162.3 111.04,-159.35 116.75,-156.5 125.89,-151.94 135.8,-146.76 144.56,-142.11"/>
<polygon fill="black" stroke="black" points="146.04,-145.29 153.2,-137.49 142.74,-139.12 146.04,-145.29"/>
</g>
<!-- n2 -->
<g id="node4" class="node">
<title>n2</title>
<polygon fill="none" stroke="black" points="477.25,-82.5 477.25,-118.5 681.75,-118.5 681.75,-82.5 477.25,-82.5"/>
<text xml:space="preserve" text-anchor="middle" x="537.37" y="-95.7" font-family="Times,serif" font-size="14.00">x1 * w1 + x2 * w2</text>
<polyline fill="none" stroke="black" points="597.5,-83 597.5,-118.5"/>
<text xml:space="preserve" text-anchor="middle" x="639.62" y="-95.7" font-family="Times,serif" font-size="14.00">data &#45;6.0000</text>
</g>
<!-- op1 -->
<g id="node10" class="node">
<title>op1</title>
<ellipse fill="none" stroke="black" cx="735.75" cy="-72.5" rx="18" ry="18"/>
<text xml:space="preserve" text-anchor="middle" x="735.75" y="-67.45" font-family="Times,serif" font-size="14.00">+</text>
</g>
<!-- n2&#45;&gt;op1 -->
<g id="edge12" class="edge">
<title>n2&#45;&gt;op1</title>
<path fill="none" stroke="black" d="M682.1,-82.06C690.91,-80.46 699.26,-78.94 706.59,-77.61"/>
<polygon fill="black" stroke="black" points="707.18,-81.06 716.4,-75.83 705.93,-74.17 707.18,-81.06"/>
</g>
<!-- op2 -->
<g id="node5" class="node">
<title>op2</title>
<ellipse fill="none" stroke="black" cx="423.25" cy="-100.5" rx="18" ry="18"/>
<text xml:space="preserve" text-anchor="middle" x="423.25" y="-95.45" font-family="Times,serif" font-size="14.00">+</text>
</g>
<!-- op2&#45;&gt;n2 -->
<g id="edge2" class="edge">
<title>op2&#45;&gt;n2</title>
<path fill="none" stroke="black" d="M441.64,-100.5C448.31,-100.5 456.51,-100.5 465.55,-100.5"/>
<polygon fill="black" stroke="black" points="465.45,-104 475.45,-100.5 465.45,-97 465.45,-104"/>
</g>
<!-- n9 -->
<g id="node6" class="node">
<title>n9</title>
<polygon fill="none" stroke="black" points="528.25,-27.5 528.25,-63.5 630.75,-63.5 630.75,-27.5 528.25,-27.5"/>
<text xml:space="preserve" text-anchor="middle" x="539.62" y="-40.7" font-family="Times,serif" font-size="14.00">b</text>
<polyline fill="none" stroke="black" points="551,-28 551,-63.5"/>
<text xml:space="preserve" text-anchor="middle" x="590.87" y="-40.7" font-family="Times,serif" font-size="14.00">data 6.8814</text>
</g>
<!-- n9&#45;&gt;op1 -->
<g id="edge13" class="edge">
<title>n9&#45;&gt;op1</title>
<path fill="none" stroke="black" d="M631.01,-54.34C656.1,-58.73 685.47,-63.87 706.54,-67.56"/>
<polygon fill="black" stroke="black" points="705.66,-70.96 716.12,-69.24 706.87,-64.07 705.66,-70.96"/>
</g>
<!-- n5 -->
<g id="node7" class="node">
<title>n5</title>
<polygon fill="none" stroke="black" points="0,-55.5 0,-91.5 116.75,-91.5 116.75,-55.5 0,-55.5"/>
<text xml:space="preserve" text-anchor="middle" x="16.25" y="-68.7" font-family="Times,serif" font-size="14.00">w1</text>
<polyline fill="none" stroke="black" points="32.5,-56 32.5,-91.5"/>
<text xml:space="preserve" text-anchor="middle" x="74.62" y="-68.7" font-family="Times,serif" font-size="14.00">data &#45;3.0000</text>
</g>
<!-- op3 -->
<g id="node14" class="node">
<title>op3</title>
<ellipse fill="none" stroke="black" cx="170.75" cy="-73.5" rx="18" ry="18"/>
<text xml:space="preserve" text-anchor="middle" x="170.75" y="-68.45" font-family="Times,serif" font-size="14.00">*</text>
</g>
<!-- n5&#45;&gt;op3 -->
<g id="edge7" class="edge">
<title>n5&#45;&gt;op3</title>
<path fill="none" stroke="black" d="M117.15,-73.5C125.44,-73.5 133.64,-73.5 141.03,-73.5"/>
<polygon fill="black" stroke="black" points="141.02,-77 151.02,-73.5 141.02,-70 141.02,-77"/>
</g>
<!-- n8 -->
<g id="node8" class="node">
<title>n8</title>
<polygon fill="none" stroke="black" points="2.25,-110.5 2.25,-146.5 114.5,-146.5 114.5,-110.5 2.25,-110.5"/>
<text xml:space="preserve" text-anchor="middle" x="18.5" y="-123.7" font-family="Times,serif" font-size="14.00">w2</text>
<polyline fill="none" stroke="black" points="34.75,-111 34.75,-146.5"/>
<text xml:space="preserve" text-anchor="middle" x="74.62" y="-123.7" font-family="Times,serif" font-size="14.00">data 1.0000</text>
</g>
<!-- n8&#45;&gt;op6 -->
<g id="edge10" class="edge">
<title>n8&#45;&gt;op6</title>
<path fill="none" stroke="black" d="M114.89,-128.5C124.01,-128.5 133.13,-128.5 141.23,-128.5"/>
<polygon fill="black" stroke="black" points="141.11,-132 151.11,-128.5 141.11,-125 141.11,-132"/>
</g>
<!-- n1 -->
<g id="node9" class="node">
<title>n1</title>
<polygon fill="none" stroke="black" points="789.75,-54.5 789.75,-90.5 892.25,-90.5 892.25,-54.5 789.75,-54.5"/>
<text xml:space="preserve" text-anchor="middle" x="801.12" y="-67.7" font-family="Times,serif" font-size="14.00">n</text>
<polyline fill="none" stroke="black" points="812.5,-55 812.5,-90.5"/>
<text xml:space="preserve" text-anchor="middle" x="852.37" y="-67.7" font-family="Times,serif" font-size="14.00">data 0.8814</text>
</g>
<!-- n1&#45;&gt;op0 -->
<g id="edge14" class="edge">
<title>n1&#45;&gt;op0</title>
<path fill="none" stroke="black" d="M892.45,-72.5C900.45,-72.5 908.61,-72.5 916.26,-72.5"/>
<polygon fill="black" stroke="black" points="916.25,-76 926.25,-72.5 916.25,-69 916.25,-76"/>
</g>
<!-- op1&#45;&gt;n1 -->
<g id="edge3" class="edge">
<title>op1&#45;&gt;n1</title>
<path fill="none" stroke="black" d="M753.8,-72.5C760.73,-72.5 769.19,-72.5 778.08,-72.5"/>
<polygon fill="black" stroke="black" points="777.97,-76 787.97,-72.5 777.97,-69 777.97,-76"/>
</g>
<!-- n6 -->
<g id="node11" class="node">
<title>n6</title>
<polygon fill="none" stroke="black" points="227,-110.5 227,-146.5 367,-146.5 367,-110.5 227,-110.5"/>
<text xml:space="preserve" text-anchor="middle" x="257.12" y="-123.7" font-family="Times,serif" font-size="14.00">x2 * w2</text>
<polyline fill="none" stroke="black" points="287.25,-111 287.25,-146.5"/>
<text xml:space="preserve" text-anchor="middle" x="327.12" y="-123.7" font-family="Times,serif" font-size="14.00">data 0.0000</text>
</g>
<!-- n6&#45;&gt;op2 -->
<g id="edge11" class="edge">
<title>n6&#45;&gt;op2</title>
<path fill="none" stroke="black" d="M367.39,-112.86C376.95,-110.71 386.28,-108.61 394.45,-106.76"/>
<polygon fill="black" stroke="black" points="395.03,-110.22 404.02,-104.61 393.49,-103.39 395.03,-110.22"/>
</g>
<!-- op6&#45;&gt;n6 -->
<g id="edge4" class="edge">
<title>op6&#45;&gt;n6</title>
<path fill="none" stroke="black" d="M189.03,-128.5C196.39,-128.5 205.55,-128.5 215.4,-128.5"/>
<polygon fill="black" stroke="black" points="215.23,-132 225.23,-128.5 215.23,-125 215.23,-132"/>
</g>
<!-- n3 -->
<g id="node13" class="node">
<title>n3</title>
<polygon fill="none" stroke="black" points="224.75,-55.5 224.75,-91.5 369.25,-91.5 369.25,-55.5 224.75,-55.5"/>
<text xml:space="preserve" text-anchor="middle" x="254.87" y="-68.7" font-family="Times,serif" font-size="14.00">x1 * w1</text>
<polyline fill="none" stroke="black" points="285,-56 285,-91.5"/>
<text xml:space="preserve" text-anchor="middle" x="327.12" y="-68.7" font-family="Times,serif" font-size="14.00">data &#45;6.0000</text>
</g>
<!-- n3&#45;&gt;op2 -->
<g id="edge8" class="edge">
<title>n3&#45;&gt;op2</title>
<path fill="none" stroke="black" d="M369.56,-89.05C378.23,-90.93 386.66,-92.77 394.13,-94.39"/>
<polygon fill="black" stroke="black" points="393.35,-97.8 403.86,-96.5 394.83,-90.96 393.35,-97.8"/>
</g>
<!-- op3&#45;&gt;n3 -->
<g id="edge5" class="edge">
<title>op3&#45;&gt;n3</title>
<path fill="none" stroke="black" d="M189.03,-73.5C195.73,-73.5 203.93,-73.5 212.77,-73.5"/>
<polygon fill="black" stroke="black" points="212.74,-77 222.74,-73.5 212.74,-70 212.74,-77"/>
</g>
<!-- n4 -->
<g id="node15" class="node">
<title>n4</title>
<polygon fill="none" stroke="black" points="3.75,-0.5 3.75,-36.5 113,-36.5 113,-0.5 3.75,-0.5"/>
<text xml:space="preserve" text-anchor="middle" x="18.5" y="-13.7" font-family="Times,serif" font-size="14.00">x1</text>
<polyline fill="none" stroke="black" points="33.25,-1 33.25,-36.5"/>
<text xml:space="preserve" text-anchor="middle" x="73.12" y="-13.7" font-family="Times,serif" font-size="14.00">data 2.0000</text>
</g>
<!-- n4&#45;&gt;op3 -->
<g id="edge6" class="edge">
<title>n4&#45;&gt;op3</title>
<path fill="none" stroke="black" d="M99,-36.85C104.97,-39.7 111.04,-42.65 116.75,-45.5 125.89,-50.06 135.8,-55.24 144.56,-59.89"/>
<polygon fill="black" stroke="black" points="142.74,-62.88 153.2,-64.51 146.04,-56.71 142.74,-62.88"/>
</g>
</g>
</svg>
