<?xml version="1.0" encoding="UTF-8" standalone="no"?>
<!DOCTYPE svg PUBLIC "-//W3C//DTD SVG 1.1//EN"
 "http://www.w3.org/Graphics/SVG/1.1/DTD/svg11.dtd">
<!-- Generated by graphviz version 13.0.0 (20250608.1624)
 -->
<!-- Title: trace_graph Pages: 1 -->
<svg width="1535pt" height="210pt"
 viewBox="0.00 0.00 1535.00 210.00" xmlns="http://www.w3.org/2000/svg" xmlns:xlink="http://www.w3.org/1999/xlink">
<g id="graph0" class="graph" transform="scale(1 1) rotate(0) translate(4 206)">
<title>trace_graph</title>
<polygon fill="white" stroke="none" points="-4,4 -4,-206 1530.57,-206 1530.57,4 -4,4"/>
<!-- n6 -->
<g id="node1" class="node">
<title>n6</title>
<polygon fill="none" stroke="black" points="308.25,-55.5 308.25,-91.5 529.5,-91.5 529.5,-55.5 308.25,-55.5"/>
<text xml:space="preserve" text-anchor="middle" x="338.38" y="-68.7" font-family="Times,serif" font-size="14.00">x2 * w2</text>
<polyline fill="none" stroke="black" points="368.5,-56 368.5,-91.5"/>
<text xml:space="preserve" text-anchor="middle" x="408.38" y="-68.7" font-family="Times,serif" font-size="14.00">data 0.0000</text>
<polyline fill="none" stroke="black" points="448.25,-56 448.25,-91.5"/>
<text xml:space="preserve" text-anchor="middle" x="488.88" y="-68.7" font-family="Times,serif" font-size="14.00">grad 0.5000</text>
</g>
<!-- op2 -->
<g id="node6" class="node">
<title>op2</title>
<ellipse fill="none" stroke="black" cx="585.75" cy="-100.5" rx="18" ry="18"/>
<text xml:space="preserve" text-anchor="middle" x="585.75" y="-95.45" font-family="Times,serif" font-size="14.00">+</text>
</g>
<!-- n6&#45;&gt;op2 -->
<g id="edge11" class="edge">
<title>n6&#45;&gt;op2</title>
<path fill="none" stroke="black" d="M529.85,-91.51C539.46,-93.08 548.51,-94.57 556.38,-95.85"/>
<polygon fill="black" stroke="black" points="555.77,-99.3 566.2,-97.46 556.9,-92.39 555.77,-99.3"/>
</g>
<!-- op6 -->
<g id="node2" class="node">
<title>op6</title>
<ellipse fill="none" stroke="black" cx="252" cy="-73.5" rx="18" ry="18"/>
<text xml:space="preserve" text-anchor="middle" x="252" y="-68.45" font-family="Times,serif" font-size="14.00">*</text>
</g>
<!-- op6&#45;&gt;n6 -->
<g id="edge1" class="edge">
<title>op6&#45;&gt;n6</title>
<path fill="none" stroke="black" d="M270.33,-73.5C277.56,-73.5 286.62,-73.5 296.67,-73.5"/>
<polygon fill="black" stroke="black" points="296.42,-77 306.42,-73.5 296.42,-70 296.42,-77"/>
</g>
<!-- n0 -->
<g id="node3" class="node">
<title>n0</title>
<polygon fill="none" stroke="black" points="1342.82,-109.5 1342.82,-145.5 1526.57,-145.5 1526.57,-109.5 1342.82,-109.5"/>
<text xml:space="preserve" text-anchor="middle" x="1354.19" y="-122.7" font-family="Times,serif" font-size="14.00">o</text>
<polyline fill="none" stroke="black" points="1365.57,-110 1365.57,-145.5"/>
<text xml:space="preserve" text-anchor="middle" x="1405.44" y="-122.7" font-family="Times,serif" font-size="14.00">data 0.7071</text>
<polyline fill="none" stroke="black" points="1445.32,-110 1445.32,-145.5"/>
<text xml:space="preserve" text-anchor="middle" x="1485.94" y="-122.7" font-family="Times,serif" font-size="14.00">grad 1.0000</text>
</g>
<!-- op0 -->
<g id="node4" class="node">
<title>op0</title>
<ellipse fill="none" stroke="black" cx="1280.03" cy="-127.5" rx="26.78" ry="26.78"/>
<text xml:space="preserve" text-anchor="middle" x="1280.03" y="-122.45" font-family="Times,serif" font-size="14.00">tanh</text>
</g>
<!-- op0&#45;&gt;n0 -->
<g id="edge2" class="edge">
<title>op0&#45;&gt;n0</title>
<path fill="none" stroke="black" d="M1307.28,-127.5C1314.41,-127.5 1322.59,-127.5 1331.28,-127.5"/>
<polygon fill="black" stroke="black" points="1331.01,-131 1341.01,-127.5 1331.01,-124 1331.01,-131"/>
</g>
<!-- n2 -->
<g id="node5" class="node">
<title>n2</title>
<polygon fill="none" stroke="black" points="639.75,-82.5 639.75,-118.5 925.5,-118.5 925.5,-82.5 639.75,-82.5"/>
<text xml:space="preserve" text-anchor="middle" x="699.87" y="-95.7" font-family="Times,serif" font-size="14.00">x1 * w1 + x2 * w2</text>
<polyline fill="none" stroke="black" points="760,-83 760,-118.5"/>
<text xml:space="preserve" text-anchor="middle" x="802.12" y="-95.7" font-family="Times,serif" font-size="14.00">data &#45;6.0000</text>
<polyline fill="none" stroke="black" points="844.25,-83 844.25,-118.5"/>
<text xml:space="preserve" text-anchor="middle" x="884.87" y="-95.7" font-family="Times,serif" font-size="14.00">grad 0.5000</text>
</g>
<!-- op1 -->
<g id="node11" class="node">
<title>op1</title>
<ellipse fill="none" stroke="black" cx="979.5" cy="-127.5" rx="18" ry="18"/>
<text xml:space="preserve" text-anchor="middle" x="979.5" y="-122.45" font-family="Times,serif" font-size="14.00">+</text>
</g>
<!-- n2&#45;&gt;op1 -->
<g id="edge12" class="edge">
<title>n2&#45;&gt;op1</title>
<path fill="none" stroke="black" d="M917.11,-118.99C929.25,-120.68 940.53,-122.24 950.01,-123.55"/>
<polygon fill="black" stroke="black" points="949.49,-127.01 959.88,-124.92 950.45,-120.08 949.49,-127.01"/>
</g>
<!-- op2&#45;&gt;n2 -->
<g id="edge3" class="edge">
<title>op2&#45;&gt;n2</title>
<path fill="none" stroke="black" d="M604.04,-100.5C610.67,-100.5 618.89,-100.5 628.12,-100.5"/>
<polygon fill="black" stroke="black" points="627.88,-104 637.88,-100.5 627.88,-97 627.88,-104"/>
</g>
<!-- n5 -->
<g id="node7" class="node">
<title>n5</title>
<polygon fill="none" stroke="black" points="0,-165.5 0,-201.5 198,-201.5 198,-165.5 0,-165.5"/>
<text xml:space="preserve" text-anchor="middle" x="16.25" y="-178.7" font-family="Times,serif" font-size="14.00">w1</text>
<polyline fill="none" stroke="black" points="32.5,-166 32.5,-201.5"/>
<text xml:space="preserve" text-anchor="middle" x="74.62" y="-178.7" font-family="Times,serif" font-size="14.00">data &#45;3.0000</text>
<polyline fill="none" stroke="black" points="116.75,-166 116.75,-201.5"/>
<text xml:space="preserve" text-anchor="middle" x="157.38" y="-178.7" font-family="Times,serif" font-size="14.00">grad 1.0000</text>
</g>
<!-- op3 -->
<g id="node15" class="node">
<title>op3</title>
<ellipse fill="none" stroke="black" cx="252" cy="-128.5" rx="18" ry="18"/>
<text xml:space="preserve" text-anchor="middle" x="252" y="-123.45" font-family="Times,serif" font-size="14.00">*</text>
</g>
<!-- n5&#45;&gt;op3 -->
<g id="edge7" class="edge">
<title>n5&#45;&gt;op3</title>
<path fill="none" stroke="black" d="M173.89,-165.01C182.11,-162.4 190.29,-159.56 198,-156.5 207.49,-152.74 217.49,-147.75 226.22,-143.02"/>
<polygon fill="black" stroke="black" points="227.77,-146.16 234.79,-138.23 224.35,-140.05 227.77,-146.16"/>
</g>
<!-- n9 -->
<g id="node8" class="node">
<title>n9</title>
<polygon fill="none" stroke="black" points="690.75,-137.5 690.75,-173.5 874.5,-173.5 874.5,-137.5 690.75,-137.5"/>
<text xml:space="preserve" text-anchor="middle" x="702.12" y="-150.7" font-family="Times,serif" font-size="14.00">b</text>
<polyline fill="none" stroke="black" points="713.5,-138 713.5,-173.5"/>
<text xml:space="preserve" text-anchor="middle" x="753.37" y="-150.7" font-family="Times,serif" font-size="14.00">data 6.8814</text>
<polyline fill="none" stroke="black" points="793.25,-138 793.25,-173.5"/>
<text xml:space="preserve" text-anchor="middle" x="833.87" y="-150.7" font-family="Times,serif" font-size="14.00">grad 0.5000</text>
</g>
<!-- n9&#45;&gt;op1 -->
<g id="edge13" class="edge">
<title>n9&#45;&gt;op1</title>
<path fill="none" stroke="black" d="M874.79,-142.4C902.02,-138.49 929.91,-134.48 949.9,-131.61"/>
<polygon fill="black" stroke="black" points="950.35,-135.08 959.75,-130.19 949.36,-128.15 950.35,-135.08"/>
</g>
<!-- n7 -->
<g id="node9" class="node">
<title>n7</title>
<polygon fill="none" stroke="black" points="3.75,-55.5 3.75,-91.5 194.25,-91.5 194.25,-55.5 3.75,-55.5"/>
<text xml:space="preserve" text-anchor="middle" x="18.5" y="-68.7" font-family="Times,serif" font-size="14.00">x2</text>
<polyline fill="none" stroke="black" points="33.25,-56 33.25,-91.5"/>
<text xml:space="preserve" text-anchor="middle" x="73.12" y="-68.7" font-family="Times,serif" font-size="14.00">data 0.0000</text>
<polyline fill="none" stroke="black" points="113,-56 113,-91.5"/>
<text xml:space="preserve" text-anchor="middle" x="153.62" y="-68.7" font-family="Times,serif" font-size="14.00">grad 0.5000</text>
</g>
<!-- n7&#45;&gt;op6 -->
<g id="edge9" class="edge">
<title>n7&#45;&gt;op6</title>
<path fill="none" stroke="black" d="M194.34,-73.5C204.44,-73.5 214.05,-73.5 222.4,-73.5"/>
<polygon fill="black" stroke="black" points="222.12,-77 232.12,-73.5 222.12,-70 222.12,-77"/>
</g>
<!-- n1 -->
<g id="node10" class="node">
<title>n1</title>
<polygon fill="none" stroke="black" points="1033.5,-109.5 1033.5,-145.5 1217.25,-145.5 1217.25,-109.5 1033.5,-109.5"/>
<text xml:space="preserve" text-anchor="middle" x="1044.88" y="-122.7" font-family="Times,serif" font-size="14.00">n</text>
<polyline fill="none" stroke="black" points="1056.25,-110 1056.25,-145.5"/>
<text xml:space="preserve" text-anchor="middle" x="1096.12" y="-122.7" font-family="Times,serif" font-size="14.00">data 0.8814</text>
<polyline fill="none" stroke="black" points="1136,-110 1136,-145.5"/>
<text xml:space="preserve" text-anchor="middle" x="1176.62" y="-122.7" font-family="Times,serif" font-size="14.00">grad 0.5000</text>
</g>
<!-- n1&#45;&gt;op0 -->
<g id="edge14" class="edge">
<title>n1&#45;&gt;op0</title>
<path fill="none" stroke="black" d="M1217.38,-127.5C1225.75,-127.5 1233.87,-127.5 1241.32,-127.5"/>
<polygon fill="black" stroke="black" points="1241.27,-131 1251.27,-127.5 1241.27,-124 1241.27,-131"/>
</g>
<!-- op1&#45;&gt;n1 -->
<g id="edge4" class="edge">
<title>op1&#45;&gt;n1</title>
<path fill="none" stroke="black" d="M997.85,-127.5C1004.55,-127.5 1012.77,-127.5 1021.79,-127.5"/>
<polygon fill="black" stroke="black" points="1021.61,-131 1031.61,-127.5 1021.61,-124 1021.61,-131"/>
</g>
<!-- n8 -->
<g id="node12" class="node">
<title>n8</title>
<polygon fill="none" stroke="black" points="2.25,-0.5 2.25,-36.5 195.75,-36.5 195.75,-0.5 2.25,-0.5"/>
<text xml:space="preserve" text-anchor="middle" x="18.5" y="-13.7" font-family="Times,serif" font-size="14.00">w2</text>
<polyline fill="none" stroke="black" points="34.75,-1 34.75,-36.5"/>
<text xml:space="preserve" text-anchor="middle" x="74.62" y="-13.7" font-family="Times,serif" font-size="14.00">data 1.0000</text>
<polyline fill="none" stroke="black" points="114.5,-1 114.5,-36.5"/>
<text xml:space="preserve" text-anchor="middle" x="155.12" y="-13.7" font-family="Times,serif" font-size="14.00">grad 0.0000</text>
</g>
<!-- n8&#45;&gt;op6 -->
<g id="edge10" class="edge">
<title>n8&#45;&gt;op6</title>
<path fill="none" stroke="black" d="M170.67,-36.92C179.96,-39.86 189.27,-43.07 198,-46.5 207.43,-50.21 217.41,-55.04 226.15,-59.59"/>
<polygon fill="black" stroke="black" points="224.25,-62.54 234.72,-64.19 227.56,-56.38 224.25,-62.54"/>
</g>
<!-- n4 -->
<g id="node13" class="node">
<title>n4</title>
<polygon fill="none" stroke="black" points="1.5,-110.5 1.5,-146.5 196.5,-146.5 196.5,-110.5 1.5,-110.5"/>
<text xml:space="preserve" text-anchor="middle" x="16.25" y="-123.7" font-family="Times,serif" font-size="14.00">x1</text>
<polyline fill="none" stroke="black" points="31,-111 31,-146.5"/>
<text xml:space="preserve" text-anchor="middle" x="70.88" y="-123.7" font-family="Times,serif" font-size="14.00">data 2.0000</text>
<polyline fill="none" stroke="black" points="110.75,-111 110.75,-146.5"/>
<text xml:space="preserve" text-anchor="middle" x="153.62" y="-123.7" font-family="Times,serif" font-size="14.00">grad &#45;1.5000</text>
</g>
<!-- n4&#45;&gt;op3 -->
<g id="edge6" class="edge">
<title>n4&#45;&gt;op3</title>
<path fill="none" stroke="black" d="M196.91,-128.5C206,-128.5 214.64,-128.5 222.23,-128.5"/>
<polygon fill="black" stroke="black" points="222.06,-132 232.06,-128.5 222.06,-125 222.06,-132"/>
</g>
<!-- n3 -->
<g id="node14" class="node">
<title>n3</title>
<polygon fill="none" stroke="black" points="306,-110.5 306,-146.5 531.75,-146.5 531.75,-110.5 306,-110.5"/>
<text xml:space="preserve" text-anchor="middle" x="336.12" y="-123.7" font-family="Times,serif" font-size="14.00">x1 * w1</text>
<polyline fill="none" stroke="black" points="366.25,-111 366.25,-146.5"/>
<text xml:space="preserve" text-anchor="middle" x="408.38" y="-123.7" font-family="Times,serif" font-size="14.00">data &#45;6.0000</text>
<polyline fill="none" stroke="black" points="450.5,-111 450.5,-146.5"/>
<text xml:space="preserve" text-anchor="middle" x="491.12" y="-123.7" font-family="Times,serif" font-size="14.00">grad 0.5000</text>
</g>
<!-- n3&#45;&gt;op2 -->
<g id="edge8" class="edge">
<title>n3&#45;&gt;op2</title>
<path fill="none" stroke="black" d="M528.47,-110.06C538.68,-108.32 548.29,-106.69 556.58,-105.28"/>
<polygon fill="black" stroke="black" points="556.94,-108.77 566.21,-103.65 555.77,-101.87 556.94,-108.77"/>
</g>
<!-- op3&#45;&gt;n3 -->
<g id="edge5" class="edge">
<title>op3&#45;&gt;n3</title>
<path fill="none" stroke="black" d="M270.33,-128.5C276.97,-128.5 285.16,-128.5 294.25,-128.5"/>
<polygon fill="black" stroke="black" points="294.23,-132 304.23,-128.5 294.23,-125 294.23,-132"/>
</g>
</g>
</svg>
